HIERARCHY
ROOT hip
{
	OFFSET 0.000000 0.000000 0.000000 
	CHANNELS 6 Xposition Yposition Zposition Xrotation Zrotation Yrotation
	JOINT abdomen
	{
		OFFSET 0.000000 3.402643 0.000000 
		CHANNELS 3 Xrotation Zrotation Yrotation
		JOINT chest
		{
			OFFSET 0.000000 8.438565 -0.680529 
			CHANNELS 3 Xrotation Zrotation Yrotation
			JOINT neck
			{
				OFFSET 0.000000 10.207942 -0.272212 
				CHANNELS 3 Xrotation Zrotation Yrotation
				JOINT head
				{
					OFFSET 0.000000 3.130431 0.000000 
					CHANNELS 3 Xrotation Zrotation Yrotation
					End Site
					{
						OFFSET 0.000000 3.130435 0.000000 
					}
				}
			}
			JOINT lCollar
			{
				OFFSET 3.470700 6.669187 -0.816635 
				CHANNELS 3 Yrotation Zrotation Xrotation
				JOINT lShldr
				{
					OFFSET 3.198488 0.000000 0.000000 
					CHANNELS 3 Zrotation Yrotation Xrotation
					JOINT lForeArm
					{
						OFFSET 10.139888 0.000000 0.000000 
						CHANNELS 3 Yrotation Zrotation Xrotation
						JOINT lHand
						{
							OFFSET 8.370511 0.000000 0.000000 
							CHANNELS 3 Zrotation Yrotation Xrotation
							End Site
							{
								OFFSET 4.083176 0.000000 0.000000 
							}
						}
					}
				}
			}
			JOINT rCollar
			{
				OFFSET -3.470700 6.669187 -0.816635 
				CHANNELS 3 Yrotation Zrotation Xrotation
				JOINT rShldr
				{
					OFFSET -3.198488 0.000000 0.000000 
					CHANNELS 3 Zrotation Yrotation Xrotation
					JOINT rForeArm
					{
						OFFSET -10.139888 0.000000 0.000000 
						CHANNELS 3 Yrotation Zrotation Xrotation
						JOINT rHand
						{
							OFFSET -8.370511 0.000000 0.000000 
							CHANNELS 3 Zrotation Yrotation Xrotation
							End Site
							{
								OFFSET -4.083176 0.000000 0.000000 
							}
						}
					}
				}
			}
		}
	}
	JOINT lThigh
	{
		OFFSET 5.308129 -1.633274 1.361059 
		CHANNELS 3 Xrotation Zrotation Yrotation
		JOINT lShin
		{
			OFFSET -2.041588 -20.007561 0.000000 
			CHANNELS 3 Xrotation Zrotation Yrotation
			JOINT lFoot
			{
				OFFSET 0.000000 -19.190928 -1.224953 
				CHANNELS 3 Xrotation Yrotation Zrotation
				End Site
				{
					OFFSET 0.000000 -2.449906 4.627600 
				}
			}
		}
	}
	JOINT rThigh
	{
		OFFSET -5.308129 -1.633274 1.361059 
		CHANNELS 3 Xrotation Zrotation Yrotation
		JOINT rShin
		{
			OFFSET 2.041588 -20.007561 0.000000 
			CHANNELS 3 Xrotation Zrotation Yrotation
			JOINT rFoot
			{
				OFFSET 0.000000 -19.190928 -1.224953 
				CHANNELS 3 Xrotation Yrotation Zrotation
				End Site
				{
					OFFSET 0.000000 -2.449906 4.627600 
				}
			}
		}
	}
}
MOTION
Frames: 20
Frame Time: 0.033333
-0.450899 49.424717 0.272300 5.107654 0.544704 -13.496144 0.000000 0.000000 0.000000 -22.271502 4.248737 10.606247 8.615062 5.066514 -1.497251 -15.755341 -4.262931 2.776911 -3.519355 9.157742 6.311733 -2.264177 14.437859 -24.998394 -7.584660 4.449380 15.087941 5.462502 2.885439 -8.357267 3.090466 -14.082293 8.028685 0.714769 -8.773165 -5.434633 5.258935 -13.804852 44.706120 17.416924 0.687752 -6.074849 -6.803882 11.526148 10.400361 19.702883 -5.345397 -3.546836 -4.128443 0.632625 -5.832892 -7.497236 -9.700915 -12.675417 8.179784 4.511647 0.512876 -0.764536 -0.131091 1.153449 
-0.455711 49.431343 0.279067 5.029558 0.583682 -13.493457 0.000000 0.000000 0.000000 -22.133924 4.234780 10.526061 8.665203 5.140127 -1.500219 -15.783506 -4.226368 2.782537 -3.519355 9.157742 6.311733 -2.641653 14.506640 -25.129786 -7.641808 4.415868 14.708384 1.839512 1.971953 -8.020317 3.090466 -14.082293 8.028685 0.678034 -8.752876 -5.768635 5.336121 -13.936349 44.781910 17.135353 0.864827 -6.070804 -6.726476 11.440184 10.363153 19.671535 -5.312270 -3.519764 -4.077899 0.635021 -5.894700 -7.470574 -9.755166 -12.706232 8.274224 4.478732 0.567408 -0.845580 -0.137113 1.182759 
-0.452716 49.425194 0.254888 5.039333 0.593401 -13.512030 0.000000 0.000000 0.000000 -22.161663 4.179635 10.516643 8.793518 5.179213 -1.528905 -15.833941 -4.269190 2.786745 -3.519355 9.157742 6.311733 -2.441744 14.482272 -25.161163 -7.772758 4.450558 15.547650 3.802111 2.332107 -8.212590 3.090466 -14.082293 8.028685 0.666677 -8.710768 -5.545457 5.268375 -13.817332 44.620449 17.138235 0.983601 -6.041436 -6.793446 11.446360 10.350698 19.699509 -5.334873 -3.418808 -4.037092 0.632084 -5.948233 -7.557077 -9.772188 -12.723774 8.374201 4.479529 0.555504 -0.847986 -0.123574 1.208966 
-0.449470 49.421879 0.232178 5.058922 0.651748 -13.526182 0.000000 0.000000 0.000000 -22.128593 4.053858 10.531774 8.637129 5.207570 -1.558924 -15.659278 -4.319628 2.783889 -3.519355 9.157742 6.311733 -2.329966 14.391196 -25.123186 -7.682798 4.456388 15.464993 4.544600 2.384993 -8.278353 3.090466 -14.082293 8.028685 0.706187 -8.730942 -5.550999 5.304113 -13.887801 44.804722 17.334234 0.853575 -6.047060 -6.815239 11.373794 10.261439 19.623631 -5.276848 -3.393450 -4.064304 0.631032 -5.906703 -7.654432 -9.830124 -12.741386 8.443634 4.490104 0.649094 -0.870021 -0.123228 1.198676 
-0.457765 49.424717 0.201329 5.097949 0.612801 -13.558511 0.000000 0.000000 0.000000 -22.128334 4.044812 10.496378 8.736385 5.278960 -1.566588 -15.776731 -4.315643 2.802478 -3.519355 9.157742 6.311733 -2.354868 14.404577 -25.445847 -7.878669 4.479207 15.809099 4.753845 2.226441 -8.291401 3.090466 -14.082293 8.028685 0.752380 -8.741625 -5.628169 5.348418 -13.962387 44.862091 17.330418 1.158807 -5.978754 -6.942220 11.451775 10.297021 19.790234 -5.306299 -3.344168 -4.025203 0.646057 -6.048028 -7.702604 -9.760459 -12.690979 8.400107 4.487640 0.665431 -0.849176 -0.126602 1.207800 
-0.462520 49.424717 0.164424 5.117463 0.593329 -13.696767 0.000000 0.000000 0.000000 -22.060873 4.082972 10.564004 8.649900 5.391756 -1.586654 -15.781994 -4.466852 2.881319 -3.519355 9.157742 6.311733 -2.238724 14.310599 -25.095634 -7.555622 4.494268 15.782344 4.744602 1.791447 -8.281796 3.090466 -14.082293 8.028685 0.797361 -8.730900 -5.897251 5.414207 -14.054214 44.965405 17.309704 1.165734 -5.979166 -6.931959 11.509192 10.356658 19.727995 -5.344583 -3.403386 -4.094840 0.634054 -5.916465 -7.791591 -9.684536 -12.620567 8.403516 4.479644 0.694228 -0.788459 -0.131117 1.205872 
-0.454722 49.427551 0.131586 5.166293 0.593283 -13.784153 0.000000 0.000000 0.000000 -22.021990 4.093150 10.592430 8.643694 5.586786 -1.670417 -15.770482 -4.689928 2.960665 -3.519355 9.157742 6.311733 -2.240887 14.349050 -25.181931 -7.713573 4.485739 15.849154 4.537706 1.861595 -8.268580 3.090466 -14.082293 8.028685 0.621293 -8.711146 -5.476512 5.306386 -13.891956 44.960812 17.393852 1.059298 -5.996866 -6.970647 11.508215 10.355184 19.623316 -5.364523 -3.027655 -4.154955 0.629753 -5.855628 -7.838382 -9.651301 -12.579892 8.254314 4.468319 0.682299 -0.692747 -0.118630 1.179017 
-0.443021 49.415730 0.105943 5.166312 0.612735 -13.821452 0.000000 0.000000 0.000000 -22.002155 4.084659 10.568177 8.978539 5.655677 -1.643019 -15.934629 -4.621578 2.975240 -3.519355 9.157742 6.311733 -2.190256 14.232456 -24.812376 -7.431578 4.475325 15.559494 4.599411 1.771500 -8.266794 3.090466 -14.082293 8.028685 0.580021 -8.654052 -5.556743 5.322920 -13.901953 44.662735 17.040028 0.841441 -6.082563 -7.047909 11.516482 10.362140 19.772499 -5.351929 -3.223128 -4.062836 0.631715 -5.980484 -7.978319 -9.696830 -12.607193 8.486202 4.482244 0.856353 -0.805041 -0.117013 1.200902 
-0.448817 49.411945 0.087299 5.195592 0.593256 -13.881505 0.000000 0.000000 0.000000 -21.963007 4.085782 10.561193 8.919456 5.634434 -1.671523 -15.615467 -4.740226 2.978409 -3.519355 9.157742 6.311733 -2.194424 14.230738 -24.983397 -7.530097 4.480376 15.575540 4.606795 1.861231 -8.266486 3.090466 -14.082293 8.028685 0.749550 -8.619322 -6.215151 5.527376 -14.244934 45.265701 17.110325 0.693594 -6.100691 -7.088879 11.608936 10.440379 19.785191 -5.428639 -3.168648 -4.168555 0.650748 -5.942339 -7.996284 -9.645034 -12.596681 8.395105 4.509668 0.821830 -0.722362 -0.128143 1.217306 
-0.455238 49.421879 0.072822 5.205323 0.554345 -13.953314 0.000000 0.000000 0.000000 -21.915651 4.141542 10.552628 8.945562 5.454157 -1.611801 -15.501572 -4.574845 2.902967 -3.519355 9.157742 6.311733 -2.262109 14.234679 -25.122318 -7.579219 4.509943 15.911848 4.570373 1.767510 -8.267392 3.090466 -14.082293 8.028685 0.727326 -8.600510 -6.289094 5.562845 -14.294080 45.496975 17.084261 0.877307 -6.071806 -7.060673 11.640248 10.420256 19.731447 -5.401635 -3.159369 -4.188264 0.639572 -5.926147 -7.917890 -9.566134 -12.529527 8.139090 4.508468 0.831327 -0.628525 -0.126424 1.196751 
-0.466106 49.417618 0.063831 5.175920 0.418210 -14.014782 0.000000 0.000000 0.000000 -21.801939 4.271879 10.520230 9.013809 5.438149 -1.578930 -15.502854 -4.610501 2.948164 -3.519355 9.157742 6.311733 -2.249476 14.161298 -24.888659 -7.358576 4.462301 15.408753 4.975204 1.763961 -8.303757 3.090466 -14.082293 8.028685 0.748462 -8.592483 -6.509227 5.664182 -14.457643 45.747086 17.123972 0.527846 -6.139738 -7.117744 11.783624 10.469814 20.005249 -5.361441 -3.167094 -4.346835 0.650482 -5.923705 -7.899419 -9.402183 -12.432001 8.173309 4.491639 0.735232 -0.597718 -0.131719 1.257410 
-0.459051 49.410995 0.047415 5.166118 0.359860 -14.176389 0.000000 0.000000 0.000000 -21.736982 4.391839 10.576115 9.028356 5.163680 -1.461055 -15.452621 -4.576585 2.938134 -3.519355 9.157742 6.311733 -2.265182 14.138299 -24.575542 -7.161684 4.369079 15.150526 5.288935 1.777411 -8.332822 3.090466 -14.082293 8.028685 0.717838 -8.540858 -6.697994 5.672180 -14.475040 45.522533 17.109987 0.348314 -6.179367 -7.156668 11.851565 10.468714 20.139503 -5.335105 -2.980308 -4.349287 0.668939 -6.011302 -7.860849 -9.334757 -12.413138 8.042322 4.518781 0.882777 -0.697862 -0.115230 1.138461 
-0.437415 49.408161 0.015382 5.302918 0.476468 -14.291632 0.000000 0.000000 0.000000 -21.871824 4.315154 10.672786 8.715952 5.250866 -1.506817 -14.907491 -4.685393 2.952758 -3.519355 9.157742 6.311733 -2.377358 14.116951 -25.040327 -7.262589 4.463453 15.100481 5.629981 1.735402 -8.360720 3.090466 -14.082293 8.028685 0.804164 -8.542556 -6.784849 5.665190 -14.452161 45.073578 16.674934 0.286555 -6.246692 -7.361930 11.705746 10.293276 20.130672 -5.244025 -2.692794 -4.295310 0.674264 -6.167260 -8.073627 -9.448372 -12.516716 8.065207 4.627895 1.094649 -0.645890 -0.125166 1.155413 
-0.436374 49.410049 -0.012676 5.439682 0.524969 -14.471407 0.000000 0.000000 0.000000 -22.097242 4.317388 10.769425 9.202274 5.035357 -1.341978 -15.271704 -4.448873 2.952122 -3.519355 9.157742 6.311733 -2.424157 14.134633 -25.310322 -7.449821 4.526515 15.416065 5.861471 1.629072 -8.382293 3.090466 -14.082293 8.028685 0.782335 -8.446860 -6.459992 5.531202 -14.230299 44.845978 16.423527 0.181788 -6.290718 -7.527611 11.685153 10.237871 20.143578 -5.248021 -2.577567 -4.312037 0.663981 -6.171784 -8.329520 -9.481220 -12.541698 8.126870 4.692533 1.210634 -0.596810 -0.117435 1.168721 
-0.442893 49.405315 -0.016793 5.410360 0.495828 -14.591630 0.000000 0.000000 0.000000 -22.049692 4.364134 10.832955 9.061196 4.819689 -1.239457 -15.231677 -4.128312 2.856288 -3.519355 9.157742 6.311733 -2.387250 14.104611 -24.828856 -7.170215 4.461245 14.939396 5.539410 1.604724 -8.353970 3.090466 -14.082293 8.028685 0.705220 -8.444403 -6.163104 5.419785 -14.056275 44.623749 16.123589 -0.275153 -6.424304 -7.525508 11.700538 10.217837 20.249529 -5.185591 -2.275378 -4.375602 0.681164 -6.260797 -8.337435 -9.438910 -12.511888 8.196692 4.683813 1.313030 -0.609296 -0.131178 1.194864 
-0.453909 49.406734 -0.027155 5.429861 0.456925 -14.702583 0.000000 0.000000 0.000000 -22.081890 4.453725 10.861742 8.835625 4.816125 -1.241737 -15.183317 -4.147736 2.860627 -3.519355 9.157742 6.311733 -2.430716 14.151810 -24.719866 -7.175018 4.424672 14.810883 5.346227 1.647263 -8.331004 3.090466 -14.082293 8.028685 0.694089 -8.451996 -6.352517 5.538229 -14.264359 45.258213 16.323915 -0.088838 -6.361552 -7.529164 11.776561 10.248283 20.274347 -5.207842 -2.281442 -4.401020 0.698053 -6.264697 -8.279201 -9.351698 -12.474087 7.985148 4.714606 1.375615 -0.606989 -0.090913 1.105712 
-0.457424 49.402950 -0.036287 5.410344 0.476384 -14.827849 0.000000 0.000000 0.000000 -22.081036 4.426578 10.902019 8.570518 4.798064 -1.221375 -15.066738 -4.178293 2.893171 -3.519355 9.157742 6.311733 -2.399362 14.207064 -24.776163 -7.205970 4.452367 14.823195 5.444345 1.650846 -8.337586 3.090466 -14.082293 8.028685 0.755738 -8.465498 -6.587790 5.543536 -14.256329 44.926308 16.248049 0.028609 -6.343098 -7.529163 11.776560 10.248282 20.326696 -5.218305 -2.151135 -4.451427 0.699586 -6.275426 -8.328316 -9.352209 -12.434079 8.033305 4.685060 1.485165 -0.611848 -0.125321 1.102942 
-0.474037 49.394432 -0.049108 5.390756 0.398620 -14.942785 0.000000 0.000000 0.000000 -22.084198 4.526119 10.939887 8.447536 5.074374 -1.351641 -14.821080 -4.455190 2.962173 -3.519355 9.157742 6.311733 -2.368086 14.178636 -24.689854 -7.200594 4.438646 15.018300 5.663507 1.562569 -8.359872 3.090466 -14.082293 8.028685 0.723433 -8.490747 -6.555737 5.611531 -14.364113 45.127853 16.596006 0.009017 -6.307414 -7.508242 11.929661 10.357199 20.441992 -5.276500 -2.219163 -4.484308 0.691492 -6.247454 -8.359128 -9.227901 -12.365704 8.083397 4.656569 1.487535 -0.580932 -0.121323 1.146257 
-0.490790 49.398228 -0.070494 5.468896 0.418010 -14.872020 0.000000 0.000000 0.000000 -22.257256 4.421056 10.849396 8.552748 5.462299 -1.576687 -14.926755 -4.675745 2.970000 -3.519355 9.157742 6.311733 -2.198435 14.083295 -24.515215 -7.167374 4.362209 15.003530 5.926581 1.657686 -8.390022 3.090466 -14.082293 8.028685 0.823902 -8.538861 -6.484723 5.666775 -14.447253 45.210205 16.350166 -0.065378 -6.351247 -7.643847 11.898190 10.263175 20.451330 -5.198226 -2.197665 -4.410411 0.695201 -6.329598 -8.404137 -9.192174 -12.325115 8.007029 4.657667 1.364486 -0.563075 -0.105446 1.141856 
-0.509499 49.400585 -0.080621 5.498208 0.437431 -14.830868 0.000000 0.000000 0.000000 -22.214712 4.313798 10.711778 8.335832 4.824305 -1.276605 -15.151196 -4.363503 2.933110 -3.519355 9.157742 6.311733 -2.177835 14.242294 -24.438013 -7.166161 4.363314 14.954730 5.735641 1.611864 -8.367023 3.090466 -14.082293 8.028685 0.792567 -8.545243 -6.665181 5.588215 -14.330173 45.006149 16.388884 0.009175 -6.330810 -7.643747 11.946774 10.351630 20.381618 -5.262810 -2.309167 -4.441472 0.696748 -6.202262 -8.444699 -9.194708 -12.324760 8.011724 4.654516 1.257887 -0.584607 -0.104447 1.142307 
